<svg version="1" xmlns="http://www.w3.org/2000/svg" width="682.667" height="682.667" viewBox="0 0 512.000000 512.000000"><path d="M236.5.6c-48.1 4.9-86.3 18.2-122.7 42.6-10.5 7-26.7 20-32.3 25.8l-4 4.2 6.3-4.2c13.9-9.1 40.4-21.5 56-26.1 4-1.2 4.4-1.1 5.8.9 2.3 3.4 9.9 2.9 35-2.3 23.4-4.8 29.5-5.3 34.9-3.1 6.3 2.7 4.2 7.1-9.1 19.2-14.3 13.1-17.2 20.6-11.6 29.5 5.8 9.1 24.2 16.4 39.3 15.7 11-.5 11.4-1 12.2-15.1.8-14 2-16.1 9.3-16.5 4.5-.3 6.6.5 20.4 7.4 30.1 14.8 36.2 20.9 31.6 31.8-1.7 4.1-5.7 8.2-28 28.6-18 16.6-30 30-34.1 38-3.2 6.4-3.2 11.9.2 23.8 1.9 6.7 2.3 9.6 1.5 10.4-1.9 1.9-6.7-1-12.1-7.2-4.4-5-5.8-6-10.1-6.9-7.9-1.7-17.9-1.3-22.6.8-8.6 3.9-16.3 13.4-16.4 20.1 0 3.4 3.1 8.2 7.4 11.5 2.8 2.1 5.9 3.1 14.8 4.6 9.5 1.6 12.1 2.4 16.1 5.2 5.9 4.2 13 13.4 15.7 20.6 2.4 6.3 2.3 8.5-.5 8.9-4 .6-11.3-6.9-18.5-18.8-4.6-7.8-6.6-8.5-21.4-8.2-14.6.3-21.2-1.1-28-5.8-5.4-3.7-7.2-5.8-14.6-16.7-7.2-10.8-12.3-15.4-27.5-24.9-13.3-8.3-16.4-11.3-24.7-24-8.5-13.1-11.9-20.9-16.8-38.9-3.1-11.3-5.1-16.6-8.1-21.5-5.9-9.4-15.1-22-16-22-1.5 0-13.1 14.7-21.2 26.9-8.7 13-21.7 38.5-27.2 53.5C3.8 200.1-1.6 238.7.8 272.3c1.3 19 3.2 30.3 7.7 48.3 4.5 17.7 9.1 29.8 18.5 48.9 24.8 50.4 65.1 90.7 115.5 115.5 32.7 16.1 60.5 23.6 97.2 26.2 26.7 1.9 52.7-.6 80.9-7.7 34.5-8.8 69.8-26.8 97.9-50 50.8-41.9 82.1-98.5 91.7-166 1.7-11.8 1.7-51.2 0-63-8.5-59.3-32.7-108.8-73.3-149.4-39.7-39.6-88-63.9-144.9-72.6C281.9 1 245.2-.3 236.5.6zm36.7 43.5c6.7 2.2 13.4 4.7 15 5.5 3.3 1.7 3 2.5-2.6 7.4-3.9 3.4-5.6 3.9-8.9 2.8C271.6 58 255.9 40 259.5 40c.8 0 7 1.8 13.7 4.1zM451 202.7c9.7 20.6 16.1 38.5 20.3 57.2l1.5 6.3-7.4-.4c-5.8-.4-8.2-1.1-11.4-3.2-13.4-8.9-17.1-36.2-7.9-57.7 1.2-2.7 2.5-4.9 2.9-4.9.4 0 1.3 1.2 2 2.7zm-160.5 59c15.8 3 25.2 7.5 36.2 17.4 9.6 8.5 14.7 11.6 22.7 13.9 21.9 6.3 26.2 8.5 29.6 15.4 4.8 10.1 2.4 16.2-19.6 49.8-14.9 22.7-27.6 39.2-36.8 47.8-24.5 22.7-27.7 27.2-32.2 44.8-3.7 14.7-3 20.7 3.4 26.7l3.1 2.9-2.1 2.3c-3.8 4-8.1 3.2-14.2-2.9-6.3-6.4-9.2-12.1-10.6-21-1.3-8.2-.3-15.4 4.4-33.8 4.6-18 7.7-38.5 8.3-55.1.7-16.8.1-18.4-10.6-27.3-14.6-12.2-19.1-18.5-21.6-30.2-2.4-11.4.5-30.4 6-40 3-5.2 9.6-11.2 13.2-12 1.6-.3 3.3-.7 3.8-.9 1.4-.4 7.4.4 17 2.2z"/></svg>